<svg xmlns="http://www.w3.org/2000/svg" width="22" height="18" fill="none" viewBox="0 0 22 18">
    <path fill-rule="evenodd" stroke="#323232" stroke-linecap="round" stroke-linejoin="round" stroke-width="1.5" d="M17.702 17C19.524 17 21 15.543 21 13.743v-2.592c-1.206 0-2.177-.96-2.177-2.15s.971-2.15 2.177-2.15l-.001-2.594c0-1.8-1.477-3.257-3.298-3.257H4.3C2.478 1 1 2.457 1 4.257L1 6.935c1.206 0 2.177.875 2.177 2.066 0 1.19-.971 2.15-2.177 2.15v2.592C1 15.543 2.476 17 4.298 17h13.404z" clip-rule="evenodd"/>
    <path stroke="#323232" stroke-linecap="round" stroke-linejoin="round" stroke-width="1.5" d="M11.5 1v2.42M11.5 14.51v2.024M11.5 11.074v-4.82"/>
</svg>
