<svg width="25" height="25" xmlns="http://www.w3.org/2000/svg" xmlns:xlink="http://www.w3.org/1999/xlink">
    <defs>
        <path id="a" d="M0 0h16v16H0z"/>
    </defs>
    <g fill="none" fill-rule="evenodd">
        <path d="M0 0h25v25H0z"/>
        <g transform="matrix(-1 0 0 1 20 4.05)">
            <mask id="b" fill="#fff">
                <use xlink:href="#a"/>
            </mask>
            <path d="M7.906 0h.188c.047.032.1.009.15.016.314-.006.553.16.78.348.075.063.14.138.21.208 2.08 2.079 4.157 4.16 6.24 6.235.283.284.506.589.526 1.005v.032a.534.534 0 0 0 0 .281v.094c-.14.733-.561 1.164-1.251 1.28-.098.017-.197.015-.296.016-.083.001-.124.04-.125.123l-.001.156c0 1.499.007 2.998-.003 4.496-.005.715-.359 1.232-.98 1.57-.158.087-.33.127-.51.124-.06.008-.121-.017-.178.016h-2.75c-.302-.075-.42-.233-.421-.578-.003-1.19-.001-2.382 0-3.574 0-.163-.015-.321-.105-.465a.748.748 0 0 0-.64-.36 20.54 20.54 0 0 0-1.482 0c-.431.018-.752.328-.746.808.014 1.15.004 2.3.004 3.45 0 .072.002.145-.003.218-.024.29-.143.432-.42.501h-2.75c-.055-.033-.117-.008-.176-.016-.503-.011-.859-.287-1.148-.661a1.689 1.689 0 0 1-.347-1.064c.003-1.478.001-2.956.001-4.434 0-.047-.003-.094 0-.14.012-.13-.047-.176-.174-.172a1.45 1.45 0 0 1-.883-.263C.256 9.002.034 8.665 0 8.22V7.75c.04-.358.221-.637.471-.887C2.62 4.72 4.763 2.573 6.91.43c.234-.233.498-.41.846-.413.05-.007.104.017.151-.016" fill="#848484" mask="url(#b)"/>
        </g>
    </g>
</svg>
