<?xml version="1.0" encoding="UTF-8"?>
<svg width="25px" height="25px" viewBox="0 0 25 25" version="1.1" xmlns="http://www.w3.org/2000/svg" xmlns:xlink="http://www.w3.org/1999/xlink">
    <title>Group 7 Copy</title>
    <defs>
        <polygon id="path-1" points="0 0 15.9983039 0 15.9983039 6.96532908 0 6.96532908"></polygon>
        <polygon id="path-3" points="0.0202189166 0 0.479781083 0 0.479781083 0.5 0.0202189166 0.5"></polygon>
        <polygon id="path-5" points="0.0203296115 0 0.479670389 0 0.479670389 0.5 0.0203296115 0.5"></polygon>
        <polygon id="path-7" points="0 0 15.9827784 0 15.9827784 7.98762808 0 7.98762808"></polygon>
    </defs>
    <g id="Final" stroke="none" stroke-width="1" fill="none" fill-rule="evenodd">
        <g id="Group-7-Copy">
            <rect id="Rectangle" x="0" y="0" width="25" height="25"></rect>
            <g id="Group-13-Copy" transform="translate(5.000000, 6.000000)">
                <g id="Group-3" transform="translate(0.001696, 6.388991)">
                    <mask id="mask-2" fill="white">
                        <use xlink:href="#path-1"></use>
                    </mask>
                    <g id="Clip-2"></g>
                    <path d="M0,5.23383605 L0,0.0211568263 C0.0799255234,-0.0277746137 0.151841809,0.0203225306 0.222965513,0.0438913828 C2.09370665,0.665024495 3.96336321,1.28941136 5.83343691,1.91254678 C6.3613792,2.08849974 6.8921998,2.25640173 7.41626262,2.44336739 C7.80120663,2.58065074 8.17225962,2.57456038 8.55895566,2.44478569 C10.940536,1.64569732 13.324369,0.853325024 15.7076597,0.0593258523 C15.9962425,-0.0368267215 15.996326,-0.0365764328 15.996326,0.264354009 C15.996326,1.88710076 15.9919459,3.50984752 15.9983039,5.13251085 C16.0011232,5.85551146 15.6562253,6.368353 15.064376,6.73356592 C14.8092484,6.89099751 14.5214164,6.96533327 14.2167316,6.96533327 C10.0663193,6.96458238 5.91594875,6.96541668 1.76557817,6.96433209 C0.970494416,6.96412352 0.312276862,6.41194494 0.0553972312,5.70358622 C0.0217751165,5.6109794 0.0186465078,5.5099462 0.0160601913,5.41104045 C0.00846810086,5.35222261 0.0330381078,5.29044301 0,5.23383605" id="Fill-1" fill="#FF7035" mask="url(#mask-2)"></path>
                </g>
                <g id="Group-6" transform="translate(0.000009, 3.534973)">
                    <mask id="mask-4" fill="white">
                        <use xlink:href="#path-3"></use>
                    </mask>
                    <g id="Clip-5"></g>
                    <path d="M0.357418917,0 C0.477918917,0.177339258 0.533918917,0.35180345 0.0204189166,0.5 L0.0204189166,0.011108207 C0.138418917,0.019733403 0.250918917,0.0159435442 0.357418917,0" id="Fill-4" fill="#848484" mask="url(#mask-4)"></path>
                </g>
                <g id="Group-9" transform="translate(0.000000, 11.622815)">
                    <mask id="mask-6" fill="white">
                        <use xlink:href="#path-5"></use>
                    </mask>
                    <g id="Clip-8"></g>
                    <path d="M0.358579611,0.5 L0.194079611,0.48457113 L0.0205796115,0.489278243 L0.0205796115,0 C0.536079611,0.148012552 0.475079611,0.322698745 0.358579611,0.5" id="Fill-7" fill="#848484" mask="url(#mask-6)"></path>
                </g>
                <g id="Group-12" transform="translate(0.001696, 0.000000)">
                    <mask id="mask-8" fill="white">
                        <use xlink:href="#path-7"></use>
                    </mask>
                    <g id="Clip-11"></g>
                    <path d="M9.19534804,2.00353598 C8.79046436,1.99815477 8.38545553,2.00132509 7.98053014,2.00132509 C7.59116436,2.00132509 7.20163172,1.99523474 6.81247451,2.00462056 C6.67819463,2.00787431 6.64407193,1.96344807 6.65379148,1.83842887 C6.66422017,1.70423241 6.66050756,1.5684508 6.65458406,1.43371205 C6.65087144,1.34986533 6.68269982,1.32842199 6.76245849,1.32867423 C7.58273797,1.33101025 8.40301746,1.33121883 9.22329694,1.32842199 C9.30906253,1.32813193 9.32879363,1.36071118 9.32633245,1.43821724 C9.32174383,1.58346812 9.31844836,1.72934471 9.32720846,1.87417844 C9.33354911,1.97925797 9.29613095,2.00487085 9.19534804,2.00353598 M15.981342,3.82263422 C15.9815923,3.68664402 15.9657407,3.55290643 15.933078,3.42137972 C15.718664,2.557258 15.017522,2.00482914 14.1214884,2.00207596 C13.0136689,1.99869706 11.9058495,1.99957307 10.79803,2.00378627 C10.6846492,2.00424513 10.6423504,1.98096828 10.6485242,1.85936969 C10.658494,1.66230906 10.6549066,1.46403869 10.6471059,1.26668606 C10.6200747,0.581937903 10.069523,0.0205403589 9.38348171,0.0100282337 C8.45795582,-0.00419650713 7.53192937,-0.00223591235 6.60632006,0.00923565286 C6.0045426,0.0167025989 5.5030892,0.442860818 5.36526356,1.02703463 C5.30340054,1.28912861 5.32792883,1.55564436 5.33435291,1.81949036 C5.33810724,1.97316762 5.29359756,2.00562172 5.14500951,2.00495428 C3.9956421,1.99982336 2.8459827,1.98989524 1.69694901,2.01087778 C0.875876946,2.0258951 0.141029337,2.71990394 0.0281491353,3.53496907 C-0.00322038121,3.58431766 0.0376601057,3.64634754 -8.34295651e-06,3.69456983 L-8.34295651e-06,5.34889468 C0.00937748312,5.35377531 0.0182627318,5.35999081 0.0281491353,5.36328628 C2.61959657,6.22765829 5.21116915,7.09169658 7.80249145,7.95648574 C7.93088955,7.99932682 8.05532474,7.99732451 8.18372284,7.95444171 C10.7458031,7.09933039 13.3079667,6.24459449 15.8715487,5.39403007 C15.9681601,5.36195141 15.983386,5.31439655 15.9827784,5.22692066 C15.9793397,4.75883908 15.980466,4.29071579 15.981342,3.82263422" id="Fill-10" fill="#FF7035" mask="url(#mask-8)"></path>
                </g>
            </g>
        </g>
    </g>
</svg>