<svg width="25" height="14" viewBox="0 0 25 14" xmlns="http://www.w3.org/2000/svg">
    <g fill="#4A4A4A" fill-rule="evenodd">
        <path d="M2.135 2.984h.77c.167 0 .303-.1.303-.222s-.136-.221-.302-.221h-.771c-.167 0-.302.099-.302.221s.135.222.302.222M3.428 6.529c-.122 0-.22.1-.22.222a.22.22 0 0 0 .22.221h3.635a.221.221 0 0 0 0-.443H3.428zM2.081 5.2h4.101c.138 0 .249-.1.249-.222s-.111-.222-.249-.222h-4.1c-.138 0-.25.1-.25.222s.112.222.25.222M4.308 2.984h3.029c.101 0 .184-.1.184-.222s-.083-.221-.184-.221h-3.03c-.1 0-.183.099-.183.221s.082.222.184.222"/>
        <path d="M23.813 10.606a.352.352 0 0 1-.249.102h-1.28a2.306 2.306 0 0 0-2.211-1.613 2.306 2.306 0 0 0-2.21 1.613h-.25V2.902h3.803c.134 0 .255.073.315.191l1.897 3.71h-3.555V4.264a.319.319 0 0 0-.322-.315.318.318 0 0 0-.321.315v3.168h4.443a1 1 0 0 1 .006.092l.035 2.836a.337.337 0 0 1-.1.245zm-3.74 2.383c-.918 0-1.665-.732-1.665-1.632a1.59 1.59 0 0 1 .192-.759l.036-.061a1.567 1.567 0 0 1 .122-.176c.015-.02.03-.04.047-.058.025-.03.05-.057.078-.085l.045-.043a1.69 1.69 0 0 1 .186-.149l.035-.025c.038-.025.077-.048.116-.07l.045-.022c.029-.015.058-.029.088-.042l.046-.02c.04-.015.08-.03.12-.043l.017-.005a1.68 1.68 0 0 1 .141-.036l.044-.008c.036-.007.072-.012.11-.017l.044-.005a1.684 1.684 0 0 1 .46.022l.043.008c.048.01.095.021.142.036l.017.005c.04.013.08.028.119.043l.046.02c.03.013.06.027.089.042l.044.023c.04.021.079.044.116.069l.036.025a1.785 1.785 0 0 1 .185.15l.046.042.078.084.047.059a1.546 1.546 0 0 1 .121.176 1.673 1.673 0 0 1 .089.17c.09.199.14.419.14.65 0 .9-.747 1.632-1.665 1.632zm-10.068 0c-.918 0-1.665-.732-1.665-1.632a1.594 1.594 0 0 1 .192-.759l.036-.061a1.886 1.886 0 0 1 .121-.176c.016-.02.031-.04.048-.059.025-.028.05-.056.078-.084l.045-.043.06-.053.048-.039c.025-.02.05-.039.077-.057l.036-.025c.038-.025.076-.048.116-.07l.045-.022c.029-.015.058-.029.088-.042l.046-.02c.04-.015.079-.03.12-.043.005-.001.01-.004.017-.005.046-.015.093-.026.141-.036l.043-.008a1.678 1.678 0 0 1 .46-.022l.045.005c.037.005.074.01.11.017l.043.008c.048.01.095.021.141.036l.018.005c.04.013.08.028.119.043l.046.02c.03.013.06.027.088.042l.045.023c.04.021.079.044.116.069l.036.025a1.674 1.674 0 0 1 .185.15l.046.042.077.084.048.059a1.793 1.793 0 0 1 .121.176c.012.02.025.04.036.061a1.594 1.594 0 0 1 .192.759c0 .9-.746 1.632-1.664 1.632zm14.517-5.472a1.65 1.65 0 0 0-.18-.726l-2.035-3.98a.994.994 0 0 0-.891-.54h-3.803V1.197C17.613.536 17.13 0 16.536 0H6.15c-.595 0-1.078.537-1.078 1.196 0 .174.144.315.322.315a.318.318 0 0 0 .321-.315c0-.307.2-.565.435-.565h10.386c.235 0 .434.258.434.565v9.512h-4.755a2.306 2.306 0 0 0-2.21-1.613 2.306 2.306 0 0 0-2.21 1.613H6.15c-.236 0-.435-.259-.435-.565a.318.318 0 0 0-.321-.315.318.318 0 0 0-.322.315c0 .66.483 1.196 1.078 1.196h1.547v.018c0 1.248 1.035 2.262 2.308 2.262 1.272 0 2.308-1.014 2.308-2.262v-.018h5.452v.018c0 1.248 1.035 2.262 2.308 2.262 1.272 0 2.308-1.014 2.308-2.262v-.018h1.183a.997.997 0 0 0 .707-.29.957.957 0 0 0 .287-.696l-.036-2.836zM2.75 6.75c0-.122-.151-.221-.336-.221H.336c-.186 0-.336.1-.336.222s.15.221.336.221h2.078c.185 0 .335-.1.335-.221"/>
        <path d="M6.81 8.523c0-.122-.132-.221-.294-.221H1.668c-.162 0-.293.099-.293.221 0 .123.131.222.293.222h4.848c.162 0 .293-.1.293-.222"/>
        <path d="M10.456 7.919V5.212c0-.155.015-.31.044-.464.03-.154.08-.294.15-.42a.886.886 0 0 1 .28-.308.767.767 0 0 1 .44-.119.89.89 0 0 1 .528.15c.14.098.243.222.31.37.069.148.102.309.102.483s-.035.335-.104.483a.946.946 0 0 1-.315.37.877.877 0 0 1-.521.15c-.063 0-.13-.005-.2-.013a1.226 1.226 0 0 1-.203-.044.69.69 0 0 1-.183-.086.602.602 0 0 1-.145-.135.562.562 0 0 0-.06.281c0 .117.028.232.087.344a.812.812 0 0 0 .284.298c.131.086.31.134.535.142.216.01.427-.03.633-.115.205-.086.386-.209.544-.368a1.811 1.811 0 0 0 .521-1.297c0-.274-.044-.52-.132-.738a1.786 1.786 0 0 0-.348-.56 1.523 1.523 0 0 0-.5-.357 1.617 1.617 0 0 0-.59-.139 1.526 1.526 0 0 0-.605.1c-.201.075-.385.194-.552.357v-.37a1.16 1.16 0 0 0-.331.032.797.797 0 0 0-.278.13.634.634 0 0 0-.264.526v4.024h.873zm4.058-1.2V4.044h.226a.74.74 0 0 0 .53-.2.692.692 0 0 0 .211-.528h-.967v-.393c0-.11.037-.187.113-.233a.452.452 0 0 1 .26-.063.638.638 0 0 1 .288.086.42.42 0 0 1 .193.21c.14-.136.213-.265.215-.387a.434.434 0 0 0-.136-.325.933.933 0 0 0-.397-.22 1.799 1.799 0 0 0-.567-.072 1.667 1.667 0 0 0-.464.076.61.61 0 0 0-.416.397 1.435 1.435 0 0 0-.06.272 2.105 2.105 0 0 0-.016.314c.003.112.004.224.004.338h-.348v.728h.348v2.675h.983z" fill-rule="nonzero"/>
    </g>
</svg>
