<svg width="24" height="24" viewBox="0 0 24 24" xmlns="http://www.w3.org/2000/svg">
    <g fill="#ff7035" fill-rule="evenodd">
        <path d="M16.159 8.473a.816.816 0 0 1-.168 1.059.824.824 0 0 1-.538.196.83.83 0 0 1-.63-.29.822.822 0 0 1 .862-1.325.82.82 0 0 1 .474.36zm-.448.213a.338.338 0 0 0-.228-.115c-.01-.001-.02-.004-.03-.004a.34.34 0 0 0-.338.31.34.34 0 0 0 .08.245l.03.029a.34.34 0 0 0 .448.01.336.336 0 0 0 .038-.475z"/>
        <path d="M23.4 16.21v2.19c0 .651-.4 1.211-.967 1.45v2.575c0 .868-.711 1.575-1.584 1.575H2.39a1.581 1.581 0 0 1-1.584-1.575V12.184c0-.868.711-1.575 1.584-1.575h1.926L8.816.413c.138-.311.532-.327.798-.212 1.85.808 3.7 1.616 5.55 2.422l1.284-1.087c.225-.191.606-.26.825-.005l5.725 6.673a.664.664 0 0 1 .084.126c.152.203.173.481-.08.695l-1.895 1.607c.75.124 1.326.771 1.326 1.552v2.575c.567.24.966.8.966 1.45zM14.302 4.875l-.143.121-.445.378-.534.452L11.74 7.05l-.375.318-.174.148-.338.287-.374.316-2.77 2.35-.165.14h1.11l.99-.84.242-.206.116-.098 1.277-1.083.597-.506 1.673-1.42.27-.228.534-.453.086-.073 1.255-1.064.403.47.053-.044a.571.571 0 0 0 .803.063l.033.038.019.023.487-.414.197.231.184.213.337.394 1.338 1.56.327.38-.487.415.052.059a.566.566 0 0 0-.063.8l-.053.044.404.47-.763.647-.733.622h1.11c.808-.685 1.617-1.37 2.425-2.057L17.998 4.16l-.073-.084-.31-.363-.027-.03-.79-.923-.45.381c-.163.14-.327.278-.49.416l-.49.417c-.356.3-.71.602-1.065.903zm4.031 2.67-1.012-1.181-.066-.077a1.741 1.741 0 0 1-.81.13l-.013-.001a1.72 1.72 0 0 1-.75-.244l-.903.765-.086.074-1.952 1.656-1.518 1.287-.5.425-.271.229h.413l.007-.01a1.715 1.715 0 0 1 1.345-.651c.393 0 .768.134 1.07.373.083.067.16.141.231.223.019.021.034.043.05.065h2.864l1.769-1.5a1.728 1.728 0 0 1 .132-1.564zm-12.75 3.063h.167l.992-.84L9.45 3.633l.57.25.027-.063a.572.572 0 0 0 .752-.291l.072.031.257-.583 2.39 1.043.666-.565L9.62 1.464 6.612 8.28l-1.028 2.33zm6.947-5.75-.95-.415a1.739 1.739 0 0 1-1.468.579L8.781 8.039l3.75-3.18zm8.734 15.116h-4.253a1.581 1.581 0 0 1-1.584-1.575v-2.19c0-.869.711-1.576 1.584-1.576h4.253v-2.45a.416.416 0 0 0-.416-.414H2.39a.416.416 0 0 0-.416.414v10.241c0 .228.187.414.416.414H20.85c.23 0 .416-.186.416-.414v-2.45zm.967-3.766a.413.413 0 0 0-.383-.41l-.033-.003h-4.804a.416.416 0 0 0-.416.413V18.4c0 .228.187.414.416.414h4.804l.033-.003a.415.415 0 0 0 .383-.41v-2.192z"/>
        <path d="M18.114 16.378a.93.93 0 0 0-.933.927.93.93 0 0 0 .933.927.93.93 0 0 0 .932-.927.93.93 0 0 0-.932-.927zM8.686 13.244H4.16c-.434 0-.62.383-.557.709a.535.535 0 0 0 .548.452h4.526a.534.534 0 0 0 .499-.29.655.655 0 0 0 .032-.516.528.528 0 0 0-.522-.355zM12.613 13.635a.599.599 0 0 0-.232-.295.565.565 0 0 0-.314-.096h-.531a.589.589 0 0 0-.588.576.589.589 0 0 0 .58.585h.53a.583.583 0 0 0 .588-.576v-.008a.555.555 0 0 0-.033-.186z" fill-rule="nonzero"/>
    </g>
</svg>
