<svg width="26" height="24" viewBox="0 0 26 24" xmlns="http://www.w3.org/2000/svg">
    <path d="m19.093 17.187 6.144 5.978a.487.487 0 0 1-.339.835H.487a.487.487 0 0 1-.34-.835l6.145-5.978a.487.487 0 0 1 .339-.138h4.238l-3.55-6.377c-.573-1.03-1.23-2.411-1.23-3.977A6.703 6.703 0 0 1 12.782 0a6.703 6.703 0 0 1 6.696 6.695c0 1.572-.658 2.951-1.231 3.978l-3.55 6.376h4.055c.127 0 .249.05.34.138zm2.443 3.735-2.98-2.9h-2.333l.472.576c.182.221.22.52.097.778a.726.726 0 0 1-.663.42h-2.6a.595.595 0 0 0-.593.594v2.637h4.12l-.537-.999a.746.746 0 0 1 .018-.74.745.745 0 0 1 .644-.366h4.355zM5.506 19.31h3.151l1.029-1.287H6.829L5.506 19.31zm6.943 2.503H8.494a.877.877 0 0 1-.797-.5.877.877 0 0 1 .106-.936l.465-.58H5.006l-3.32 3.23h10.763v-1.214zm.07-1.8-.16-.288c-.26-.464-.575-1.031-.949-1.702h-1.1L8.183 20.68a.388.388 0 0 0-.048.42.39.39 0 0 0 .358.225h3.955v-.936c0-.133.025-.26.07-.377zm.264-1.526 4.615-8.289c.516-.923 1.107-2.155 1.107-3.503A5.728 5.728 0 0 0 12.783.973a5.728 5.728 0 0 0-5.721 5.722c0 1.342.592 2.578 1.107 3.504l4.614 8.288zm9.253 2.921h-4.855a.26.26 0 0 0-.227.13.262.262 0 0 0-.006.26l.66 1.23H23.7l-1.664-1.62zm-7.88-3.385-.719 1.292c.031-.003.061-.005.093-.005h2.6a.242.242 0 0 0 .222-.141.242.242 0 0 0-.032-.262l-.727-.884h-1.437zm1.68-11.328a3.056 3.056 0 0 1-3.053 3.052 3.056 3.056 0 0 1-3.052-3.052 3.055 3.055 0 0 1 3.052-3.052 3.056 3.056 0 0 1 3.053 3.052zm-.487 0a2.568 2.568 0 0 0-2.566-2.565 2.568 2.568 0 0 0-2.565 2.565 2.569 2.569 0 0 0 2.565 2.566 2.569 2.569 0 0 0 2.566-2.566z" fill="#ff7035" fill-rule="evenodd"/>
</svg>
