<svg width="21" height="24" viewBox="0 0 21 24" xmlns="http://www.w3.org/2000/svg">
    <path d="M8.444 0h4.113c.446 0 .853.18 1.149.471V.47c.296.29.479.69.479 1.131v.539h3.7a3.13 3.13 0 0 1 2.198.9l.003.002c.564.555.914 1.32.914 2.16v.364c0 .409-.17.78-.444 1.05v.003a1.524 1.524 0 0 1-.857.422l-1.781 15.18c-.056.483-.27.93-.599 1.253a1.8 1.8 0 0 1-1.28.526H4.961c-.51 0-.948-.201-1.278-.525H3.68a2.103 2.103 0 0 1-.598-1.255L1.3 7.04C.97 6.995.671 6.842.444 6.62v-.003A1.472 1.472 0 0 1 0 5.566v-.363c0-.841.35-1.606.915-2.16l.002-.004a3.132 3.132 0 0 1 2.198-.899h3.7v-.539c0-.44.183-.841.478-1.131l.002.001A1.64 1.64 0 0 1 8.444 0zm11.044 5.771a.21.21 0 0 0 .145-.06l.001.001a.206.206 0 0 0 .06-.146v-.363c0-.49-.203-.935-.53-1.257a1.821 1.821 0 0 0-1.278-.522H3.115c-.498 0-.95.2-1.278.522-.328.322-.53.768-.53 1.257v.363c0 .057.022.109.06.146v-.001a.21.21 0 0 0 .145.06h17.976zm-6.931-4.487H8.444c-.09 0-.17.035-.228.091v.003a.311.311 0 0 0-.094.223v.426h4.757v-.426a.312.312 0 0 0-.095-.223v-.003a.322.322 0 0 0-.227-.09zm5.828 5.772H2.615l1.763 15.019a.823.823 0 0 0 .226.492l-.002.001a.508.508 0 0 0 .359.148h11.078c.14 0 .263-.058.357-.15a.826.826 0 0 0 .226-.491l1.763-15.02zM13.54 9.729c0-.355.292-.643.653-.643.36 0 .653.288.653.643v8.135a.648.648 0 0 1-.653.642.647.647 0 0 1-.653-.642V9.729zm-7.385 0c0-.355.292-.643.652-.643.361 0 .654.288.654.643v8.135a.648.648 0 0 1-.654.642.647.647 0 0 1-.652-.642V9.729zm3.627 0c0-.355.293-.643.653-.643.36 0 .653.288.653.643v8.135a.647.647 0 0 1-.653.642.648.648 0 0 1-.653-.642V9.729zM5.723 21.543a.648.648 0 0 1-.653-.642c0-.355.292-.643.653-.643h9.7c.361 0 .654.288.654.643a.648.648 0 0 1-.653.642h-9.7z" fill="#121212" fill-rule="evenodd"/>
</svg>
