<?xml version="1.0" encoding="UTF-8"?>
<svg width="25px" height="25px" viewBox="0 0 25 25" version="1.1" xmlns="http://www.w3.org/2000/svg" xmlns:xlink="http://www.w3.org/1999/xlink">
    <title>Group 5 Copy</title>
    <defs>
        <polygon id="path-1" points="0 0 16 0 16 16 0 16"></polygon>
    </defs>
    <g id="Final" stroke="none" stroke-width="1" fill="none" fill-rule="evenodd">
        <g id="Group-5-Copy">
            <rect id="Rectangle" x="0" y="0" width="25" height="25"></rect>
            <g id="Group-3" transform="translate(12.000000, 12.050000) scale(-1, 1) translate(-12.000000, -12.050000) translate(4.000000, 4.050000)">
                <mask id="mask-2" fill="white">
                    <use xlink:href="#path-1"></use>
                </mask>
                <g id="Clip-2"></g>
                <path d="M7.90624764,-9.37859563e-06 L8.09375549,-9.37859563e-06 C8.14105449,0.0324405627 8.194387,0.00883776338 8.24443702,0.0160905441 C8.55827352,0.0104633866 8.79705061,0.175307838 9.02369815,0.36363004 C9.09947658,0.42659168 9.16468855,0.502120637 9.23458977,0.572022438 C11.3135886,2.65097575 13.3911493,4.73133586 15.4731492,6.80728803 C15.7572871,7.09058414 15.9801832,7.3956386 16,7.81248592 L16,7.84374791 C15.9748687,7.9375026 15.9748687,8.0312573 16,8.12501199 L16,8.21873543 C15.8605446,8.9522354 15.4389176,9.38336944 14.7490338,9.49963277 C14.6507469,9.51620162 14.5519598,9.5136694 14.4532665,9.51510745 C14.3702041,9.51635793 14.328626,9.55409115 14.3280321,9.63831094 C14.3276882,9.69029962 14.3268129,9.74235083 14.3268129,9.79437077 C14.3267191,11.2929453 14.3336904,12.7915824 14.3237179,14.2900944 C14.3189662,15.0049935 13.9653022,15.5221918 13.3437253,15.8609467 C13.1860411,15.9468859 13.0143204,15.9873076 12.8336589,15.9839001 C12.774793,15.991528 12.7128948,15.9669248 12.6562486,15.9999906 L9.90624803,15.9999906 C9.60391584,15.9250025 9.48512127,15.7669732 9.4845273,15.4224973 C9.48243276,14.2311343 9.48355819,13.03974 9.48405837,11.848377 C9.4841209,11.6850019 9.47027195,11.5265349 9.37995682,11.3834175 C9.23130729,11.147921 9.00928649,11.03122 8.74059193,11.0226855 C8.24671913,11.0069607 7.75187722,11.0032092 7.25828577,11.0231544 C6.82693643,11.0405986 6.50584721,11.3506237 6.51175568,11.831308 C6.52585472,12.980905 6.51635115,14.1307521 6.51625737,15.2805054 C6.51622611,15.3533458 6.51841443,15.42628 6.51256849,15.4989329 C6.48930976,15.789263 6.37014005,15.9314425 6.0937551,15.9999906 L3.34375456,15.9999906 C3.28751471,15.9669248 3.22599163,15.9915905 3.16731336,15.9838688 C2.66428088,15.972552 2.30817852,15.6973215 2.01919509,15.3226466 C1.78038674,15.0129653 1.67128331,14.6539839 1.67206485,14.2592076 C1.67497219,12.7811722 1.67322153,11.3031055 1.67322153,9.82507004 C1.67322153,9.77823959 1.66968896,9.73106525 1.67369046,9.68460994 C1.68478837,9.55537289 1.62586002,9.50882379 1.49946884,9.51298164 C1.17694158,9.52354819 0.880330296,9.4311065 0.616324992,9.25006834 C0.255064449,9.00234836 0.0338251911,8.6650628 0,8.21873543 L0,7.74999321 C0.0400462752,7.39213726 0.221051688,7.11334287 0.471458139,6.86346582 C2.61901389,4.72033164 4.76313085,2.57378991 6.90915478,0.429092638 C7.14283621,0.195534343 7.40706034,0.0189666468 7.75472204,0.0161218061 C7.80502216,0.0088065014 7.85863602,0.0325030866 7.90624764,-9.37859563e-06" id="Fill-1" fill="#FF7035" mask="url(#mask-2)"></path>
            </g>
        </g>
    </g>
</svg>