<svg width="179" height="38" viewBox="0 0 179 38" xmlns="http://www.w3.org/2000/svg">
    <defs>
        <linearGradient x1="0%" y1="50%" x2="100%" y2="50%" id="a">
            <stop stop-color="#EE2224" offset="0%"/>
            <stop stop-color="#F16521" offset="100%"/>
        </linearGradient>
    </defs>
    <path d="M138.056 0c-.087 0-.173.001-.259.003-1.85.074-3.112.56-3.858 1.484-1.092 1.354-1.072 3.642-1.051 6.064.003.344.006.693.006 1.044v.257h-1.88v4.097h1.88V29.9h4.806V12.95h1.478c2.1 0 3.643-1.708 3.748-4.098H137.7v-2.75c0-1.294.83-2.131 2.114-2.131 1.02 0 2.247.566 2.824 1.652.84-1.078 1.061-2.152.637-3.124C142.62 1.004 140.524 0 138.055 0zm15.81 8.31c-1.626.078-3.065 1.206-3.954 3.097l-.483 1.025V8.81h-4.07V29.9h4.805v-8.467c0-1.096 0-2.46.083-3.797.268-3.094 2.596-4.759 4.65-4.759 1.11 0 1.995.489 2.439 1.326.793-.778 1.055-2.068.648-3.319-.526-1.618-1.934-2.585-3.766-2.585-.114 0-.232.004-.352.011zm-29.627 0c-1.626.078-3.067 1.206-3.955 3.097l-.482 1.025V8.81h-4.072V29.9h4.807v-8.467c0-1.096 0-2.46.082-3.797.269-3.094 2.598-4.759 4.651-4.759 1.108 0 1.995.489 2.439 1.326.792-.778 1.056-2.068.649-3.319-.527-1.618-1.934-2.585-3.768-2.585-.114 0-.232.004-.351.011zm-29.943 15.8c1.67 3.97 5.212 6.246 9.716 6.246 3.956 0 6.767-1.392 8.82-4.377l-3.865-1.908c-1.34 1.325-3.152 2.082-5.002 2.082-.397 0-.793-.035-1.183-.106-2.842-.488-4.918-3.493-4.827-6.99.08-3.7 2.748-6.63 6.206-6.814a7.18 7.18 0 0 1 .326-.009c2.63 0 4.539 1.786 4.607 3.389.056 1.333-1.102 2.234-3.1 2.41-.61.061-1.342.125-2.082.125-1.696 0-3.008-.354-3.993-1.082-.375 1.146-.283 2.186.273 3.025.81 1.22 2.533 1.92 4.73 1.92.993 0 2.055-.142 3.155-.422 4.242-1.064 5.406-4.279 5.116-6.709-.378-3.169-3.272-6.58-8.732-6.58-3.342 0-6.222 1.138-8.111 3.202-2.992 3.188-3.835 8.368-2.054 12.599v-.001zM26.68 11.512c-2.992 3.188-3.836 8.368-2.054 12.6 1.671 3.968 5.212 6.244 9.714 6.244 3.958 0 6.768-1.392 8.82-4.377l-3.864-1.908c-1.339 1.325-3.152 2.082-5 2.082-.4 0-.797-.035-1.184-.106-2.842-.488-4.918-3.493-4.828-6.99.082-3.7 2.75-6.63 6.207-6.814.11-.005.22-.009.325-.009 2.63 0 4.54 1.786 4.607 3.389.056 1.333-1.102 2.234-3.099 2.41-.612.061-1.34.125-2.081.125-1.697 0-3.008-.354-3.994-1.082-.376 1.146-.282 2.186.273 3.025.81 1.22 2.533 1.92 4.73 1.92.993 0 2.055-.142 3.155-.422 4.24-1.064 5.406-4.279 5.116-6.709-.379-3.169-3.273-6.58-8.733-6.58-3.342 0-6.222 1.138-8.11 3.202zm48.23-.325-.43.436V8.926l-.137-.002c-2.229 0-4.628 1.275-4.628 4.075V38h4.766V21.266c0-2.55.562-8.483 5.77-8.483 4.08 0 5.939 3.377 5.939 6.514 0 3.275-2.041 6.59-5.94 6.59-.932 0-3.116-.155-4.346-1.509-.301.916-.264 2.33.413 3.527.588 1.041 1.871 2.305 4.637 2.41.086.003.174.005.261.005 2.467 0 4.926-1.12 6.749-3.075 1.925-2.064 2.985-4.85 2.985-7.847 0-7.156-4.928-11.017-9.564-11.017-2.382 0-4.682.997-6.473 2.806h-.001zm-23.651 0-.433.436V8.926l-.136-.002c-2.23 0-4.63 1.275-4.63 4.075V38h4.766V21.266c0-2.55.563-8.483 5.77-8.483 4.082 0 5.94 3.377 5.94 6.514 0 3.275-2.04 6.59-5.94 6.59-.932 0-3.116-.155-4.345-1.509-.301.916-.263 2.329.412 3.525.589 1.043 1.871 2.307 4.638 2.413.085.002.173.004.26.004 2.467 0 4.926-1.12 6.75-3.075 1.925-2.063 2.985-4.85 2.985-7.847 0-7.156-4.927-11.017-9.565-11.017-2.381 0-4.68.997-6.472 2.806zm-46.06 0-.432.436V8.926l-.137-.002C2.4 8.924 0 10.2 0 13v25h4.766V21.266c0-2.55.562-8.483 5.77-8.483 4.08 0 5.939 3.377 5.939 6.514 0 3.275-2.04 6.59-5.939 6.59-.933 0-3.117-.155-4.348-1.509-.3.916-.261 2.33.414 3.527.589 1.041 1.87 2.305 4.64 2.41.084.003.172.005.26.005 2.464 0 4.924-1.12 6.748-3.075 1.925-2.064 2.985-4.85 2.985-7.847 0-7.156-4.928-11.017-9.564-11.017-2.383 0-4.681.997-6.474 2.806h.001zm169.038-2.335c.003 2.123.02 16.675.02 18.398 0 3.988-2.124 6.1-6.312 6.281-.09.003-.18.005-.267.005-2.333 0-5.355-1.013-6.843-3.222-.444 1.968-.183 3.623.778 4.927 1.274 1.728 3.787 2.719 6.894 2.719 6.67 0 10.494-3.798 10.494-10.42V8.853h-4.763l-.001-.001zm-13.569 0v13.827c0 2.377.578 4.14 1.769 5.39 1.34 1.398 3.108 2.138 5.11 2.138.165 0 .33-.005.495-.015 2.622-.172 4.164-1.01 4.715-2.561.653-1.96-.109-3.437-.758-4.042-.01.506-.164.942-.463 1.3-.52.625-1.437.955-2.65.955-1.567 0-2.732-1.038-3.199-2.85-.445-1.674-.385-8.37-.348-12.372l.013-1.77h-4.684z" fill="url(#a)" fill-rule="evenodd"/>
</svg>
