<svg xmlns="http://www.w3.org/2000/svg" width="62" height="62" viewBox="0 0 62 62">
    <g fill="none" fill-rule="evenodd">
        <g>
            <g>
                <g transform="translate(-706 -312) translate(255 313) translate(452)">
                    <circle cx="30" cy="30" r="30" stroke="#E7E7E7"/>
                    <g>
                        <path fill="#FFF" d="M12.935 15.982l5.82 5.82c.405.404 1.065.404 1.47 0l.663-.664c.768-.768.768-2.026 0-2.795l-.069-.069 2.285-2.285c1.043.636 2.43.503 3.33-.396l6.8-6.8c2.004-2.005 2.004-5.285 0-7.29-2.006-2.004-5.286-2.004-7.29 0l-6.8 6.8c-.9.9-1.031 2.287-.396 3.329l-2.286 2.286-.069-.07c-.768-.768-2.027-.768-2.795 0l-.663.665c-.404.404-.404 1.065 0 1.469" transform="translate(11.842 12.632)"/>
                        <path stroke="#4A4A4A" stroke-linecap="round" stroke-linejoin="round" stroke-width="1.2" d="M12.935 15.982l5.82 5.82c.405.404 1.065.404 1.47 0l.663-.664c.768-.768.768-2.026 0-2.795l-.069-.069 2.285-2.285c1.043.636 2.43.503 3.33-.396l6.8-6.8c2.004-2.005 2.004-5.285 0-7.29-2.006-2.004-5.286-2.004-7.29 0l-6.8 6.8c-.9.9-1.031 2.287-.396 3.329l-2.286 2.286-.069-.07c-.768-.768-2.027-.768-2.795 0l-.663.665c-.404.404-.404 1.065 0 1.469zM20.526 11.053L26.842 4.737M23.684 14.211L30 7.895" transform="translate(11.842 12.632)"/>
                        <path fill="#FFF" d="M13.337 17.368L15.789 19.821 4.031 31.579 1.579 29.126z" transform="translate(11.842 12.632)"/>
                        <path stroke="#4A4A4A" stroke-linecap="round" stroke-linejoin="round" stroke-width="1.2" d="M13.337 17.368L15.789 19.821 4.031 31.579 1.579 29.126z" transform="translate(11.842 12.632)"/>
                        <path fill="#FFF" d="M8.02 30.34l-2.817 2.818-3.624-3.623 2.817-2.818 1.03-1.029c.566-.567 1.492-.567 2.058 0l1.565 1.565c.566.566.566 1.493 0 2.058l-1.03 1.03z" transform="translate(11.842 12.632)"/>
                        <path stroke="#4A4A4A" stroke-linecap="round" stroke-linejoin="round" stroke-width="1.2" d="M8.02 30.34l-2.817 2.818-3.624-3.623 2.817-2.818 1.03-1.029c.566-.567 1.492-.567 2.058 0l1.565 1.565c.566.566.566 1.493 0 2.058l-1.03 1.03z" transform="translate(11.842 12.632)"/>
                        <path fill="#FFF" d="M6.316 10.717L10.717 6.316 28.421 24.021 24.02 28.421z" transform="translate(11.842 12.632)"/>
                        <path stroke="#F05922" stroke-linecap="round" stroke-linejoin="round" stroke-width="1.2" d="M6.316 10.717L10.717 6.316 28.421 24.021 24.02 28.421z" transform="translate(11.842 12.632)"/>
                        <path fill="#FFF" d="M4.76.194c2.085-.529 4.389.023 6.022 1.656 2.466 2.466 2.466 6.465 0 8.931-2.467 2.467-6.466 2.467-8.933 0C.217 9.15-.335 6.845.194 4.76l1.72 1.721c1.256 1.255 3.31 1.255 4.566 0 1.255-1.256 1.255-3.31 0-4.565L4.76.194z" transform="translate(11.842 12.632)"/>
                        <path stroke="#F05922" stroke-linecap="round" stroke-linejoin="round" stroke-width="1.2" d="M4.76.194c2.085-.529 4.389.023 6.022 1.656 2.466 2.466 2.466 6.465 0 8.931-2.467 2.467-6.466 2.467-8.933 0C.217 9.15-.335 6.845.194 4.76l1.72 1.721c1.256 1.255 3.31 1.255 4.566 0 1.255-1.256 1.255-3.31 0-4.565L4.76.194z" transform="translate(11.842 12.632)"/>
                        <path fill="#FFF" d="M34.543 29.978c.528-2.087-.023-4.39-1.655-6.023-2.467-2.466-6.466-2.466-8.933 0-2.466 2.467-2.466 6.466 0 8.932 1.633 1.633 3.937 2.184 6.023 1.656l-1.721-1.72c-1.255-1.256-1.255-3.31 0-4.566 1.255-1.255 3.31-1.255 4.565 0l1.72 1.72z" transform="translate(11.842 12.632)"/>
                        <path stroke="#F05922" stroke-linecap="round" stroke-linejoin="round" stroke-width="1.2" d="M34.543 29.978c.528-2.087-.023-4.39-1.655-6.023-2.467-2.466-6.466-2.466-8.933 0-2.466 2.467-2.466 6.466 0 8.932 1.633 1.633 3.937 2.184 6.023 1.656l-1.721-1.72c-1.255-1.256-1.255-3.31 0-4.566 1.255-1.255 3.31-1.255 4.565 0l1.72 1.72z" transform="translate(11.842 12.632)"/>
                    </g>
                </g>
            </g>
        </g>
    </g>
</svg>
