<svg xmlns="http://www.w3.org/2000/svg" width="62" height="62" viewBox="0 0 62 62">
    <g fill="none" fill-rule="evenodd">
        <g>
            <g>
                <g transform="translate(-254 -666) translate(255 313) translate(0 354)">
                    <circle cx="30" cy="30" r="30" stroke="#E7E7E7"/>
                    <g>
                        <path fill="#4A4A4A" d="M5.422 5.37h1.387c.3 0 .543-.178.543-.398 0-.22-.243-.399-.543-.399H5.422c-.3 0-.544.179-.544.399 0 .22.244.399.544.399M6.17 11.752c-.219 0-.396.179-.396.399 0 .22.177.399.396.399h6.544c.219 0 .396-.179.396-.399 0-.22-.177-.399-.396-.399H6.17zM4.536 8.57h7.382c.247 0 .447-.179.447-.4 0-.22-.2-.398-.447-.398H4.536c-.247 0-.447.179-.447.399 0 .22.2.399.447.399M9.333 5.37h5.452c.183 0 .331-.178.331-.398 0-.22-.148-.399-.33-.399H9.332c-.183 0-.33.179-.33.399 0 .22.147.399.33.399" transform="translate(5.526 17.368)"/>
                        <path fill="#4A4A4A" d="M44.784 19.275h-3.095c-.513-1.677-2.102-2.904-3.979-2.904-1.877 0-3.466 1.227-3.98 2.904h-.447l2.369-14.052h6.843c.242 0 .46.132.569.344l3.415 6.677h-6.4V7.677c0-.314-.26-.568-.58-.568-.32 0-.578.254-.578.568v5.702h7.997c.006.055.011.11.012.165l-1.516 5.105c.002.167-.062.324-.182.442-.12.119-.279.184-.448.184zm-10.07 1.168c0-.415.09-.81.249-1.169.03-.067.062-.133.097-.197.02-.038.042-.074.064-.11.021-.036.043-.071.066-.106.023-.036.047-.07.072-.106l.08-.106.085-.104c.046-.052.092-.103.141-.152l.082-.077c.035-.033.07-.065.108-.096.028-.024.056-.048.085-.07.046-.036.093-.07.14-.103l.064-.046c.068-.044.138-.085.21-.124.026-.015.053-.028.08-.041.052-.027.105-.052.159-.076l.083-.035c.07-.028.141-.054.214-.077l.032-.01c.083-.026.168-.047.254-.065l.078-.015c.065-.012.13-.021.197-.03l.08-.008c.092-.008.183-.014.276-.014.093 0 .184.006.275.014.027.002.054.006.08.009.067.008.133.017.198.03.026.004.052.008.078.014.086.018.171.039.254.064l.032.011c.073.023.144.049.214.077l.083.035c.054.024.107.049.16.076l.08.04c.07.04.141.081.208.125.023.015.043.03.065.046.047.033.094.067.14.102l.085.07c.037.032.073.064.108.097.028.026.055.05.082.077.048.049.095.1.14.151.03.034.057.07.086.106l.08.105c.025.035.05.07.073.106l.065.105c.022.037.044.073.065.111.034.063.065.128.095.195.16.359.25.755.25 1.171 0 1.62-1.344 2.937-2.996 2.937s-2.996-1.317-2.996-2.937zm-18.123 0c0-.416.09-.812.25-1.171.03-.067.062-.132.096-.195.02-.038.043-.074.064-.11l.065-.106.073-.106c.026-.036.053-.07.08-.105.029-.036.057-.072.086-.106.045-.052.092-.102.14-.15l.082-.078c.036-.033.071-.065.108-.096.028-.024.057-.048.086-.07.045-.036.092-.07.14-.103l.064-.046c.068-.044.137-.085.209-.124.026-.015.053-.028.08-.041.052-.027.105-.052.16-.076.027-.012.054-.024.083-.035.07-.028.14-.054.213-.077l.032-.01c.083-.026.168-.047.254-.065l.078-.015c.066-.012.131-.021.198-.03l.08-.008c.09-.008.183-.014.275-.014.093 0 .185.006.275.014.027.002.054.006.08.009.067.008.133.017.198.03.027.004.053.008.079.014.085.018.17.039.254.064l.031.011c.073.023.144.049.214.077l.083.035c.054.024.107.049.16.076l.08.04c.071.04.141.081.209.125l.064.046c.048.033.095.067.14.102l.086.07.107.097c.028.026.056.05.082.077.049.049.095.1.14.151.03.034.058.07.086.106.028.035.055.07.08.105.026.035.05.07.073.106.023.035.044.07.065.105.022.037.044.073.065.111.034.063.066.128.096.195.16.359.25.755.25 1.171 0 1.62-1.344 2.937-2.997 2.937-1.652 0-2.996-1.317-2.996-2.937zm31.497-6.913c-.006-.45-.118-.902-.324-1.306l-3.665-7.165c-.306-.599-.92-.97-1.604-.97h-6.843V2.153c0-1.187-.87-2.153-1.94-2.153H15.017c-1.07 0-1.94.966-1.94 2.153 0 .313.26.567.579.567.32 0 .579-.254.579-.567 0-.552.358-1.018.782-1.018h18.695c.424 0 .782.466.782 1.018v1.936l-2.368 15.186h-8.56c-.513-1.677-2.102-2.904-3.979-2.904-1.876 0-3.465 1.227-3.979 2.904h-2.96c-.424 0-.782-.466-.782-1.018 0-.313-.26-.567-.579-.567-.32 0-.578.254-.578.567 0 1.187.87 2.153 1.94 2.153h2.785v.033c0 2.245 1.863 4.072 4.153 4.072 2.291 0 4.155-1.827 4.155-4.072l-.001-.033H33.557l-.001.033c0 2.245 1.864 4.072 4.154 4.072s4.154-1.827 4.154-4.072v-.033h2.92c.481 0 .934-.185 1.272-.521.339-.336.522-.781.516-1.254l1.516-5.105z" transform="translate(5.526 17.368)"/>
                        <text fill="#F05922" font-family="FiraSans-MediumItalic, Fira Sans" font-size="9" font-style="italic" font-weight="400" letter-spacing="-.129" transform="translate(5.526 17.368)">
                            <tspan x="14.263" y="13.383">48</tspan> <tspan x="23.915" y="13.383" font-family="FiraSans-Italic, Fira Sans" font-weight="normal">hr</tspan>
                        </text>
                        <path fill="#4A4A4A" d="M4.951 13.992c0-.254-.27-.46-.604-.46H.604c-.333 0-.604.206-.604.46s.27.46.604.46h3.743c.334 0 .604-.206.604-.46M10.577 17.666c0-.253-.237-.459-.529-.459h-8.73c-.291 0-.528.206-.528.46 0 .253.237.459.529.459h8.73c.291 0 .528-.206.528-.46" transform="translate(5.526 17.368)"/>
                    </g>
                </g>
            </g>
        </g>
    </g>
</svg>
