<svg xmlns="http://www.w3.org/2000/svg" xmlns:xlink="http://www.w3.org/1999/xlink" width="62" height="62" viewBox="0 0 62 62">
    <defs>
        <path id="qovvg5r4ia" d="M0 0L33.158 0 33.158 30.789 0 30.789z"/>
        <path id="4fxwjuy8dc" d="M0.01 0.009L4.736 0.009 4.736 6.311 0.01 6.311z"/>
        <path id="kafoy7ouqe" d="M0 0.008L3.154 0.008 3.154 3.15 0 3.15z"/>
    </defs>
    <g fill="none" fill-rule="evenodd">
        <g>
            <g>
                <g transform="translate(-254 -480) translate(255 313) translate(0 168)">
                    <circle cx="30" cy="30" r="30" stroke="#E7E7E7"/>
                    <g>
                        <g transform="translate(10.263 13.421) translate(2.368 3.158)">
                            <mask id="fndp4i4tmb" fill="#fff">
                                <use xlink:href="#qovvg5r4ia"/>
                            </mask>
                            <path fill="#4A4A4A" d="M32.03 15.213c-.55 2.005-2.824 1.98-2.908 1.98-.145-.002-.27.05-.366.145-.099.095-.154.226-.154.362v5.884c0 .965-.787 1.75-1.754 1.75H6.308c-.966 0-1.752-.785-1.752-1.75V17.7c0-.136-.055-.267-.154-.362-.094-.093-.223-.145-.356-.145h-.01c-.097.003-2.357.025-2.908-1.98-.284-1.03-.021-2.209.703-3.156.678-.89 1.621-1.399 2.587-1.399.96 0 4.09.23 4.09 3.193v7.476c0 .28.227.507.508.507h15.126c.281 0 .508-.227.508-.507V13.85c0-2.963 3.13-3.193 4.089-3.193.966 0 1.908.51 2.587 1.398.724.948.987 2.128.704 3.157zm-7.014 14.562l-.823-3.426h2.147v3.426h-1.324zm-16.874 0H6.817v-3.426h2.148l-.823 3.426zm1.382-8.956h14.11v-3.5H9.524v3.5zM6.5 5.1c0-2.252 1.835-4.085 4.09-4.085h11.976c2.256 0 4.091 1.833 4.091 4.085v4.827c-1.903.568-3.023 1.964-3.023 3.925v2.453H9.524v-2.453c0-1.96-1.12-3.358-3.024-3.925V5.1zm25.634 6.342c-.872-1.142-2.11-1.797-3.395-1.797-.373 0-.727.026-1.065.07V5.099C27.674 2.287 25.383 0 22.566 0H10.591C7.774 0 5.483 2.287 5.483 5.099v4.615c-.338-.044-.692-.07-1.065-.07-1.285 0-2.523.655-3.395 1.798-.915 1.197-1.242 2.707-.876 4.04.525 1.908 2.232 2.57 3.393 2.7v5.402c0 1.35.977 2.474 2.26 2.713v3.985c0 .28.228.507.509.507h2.234c.235 0 .44-.16.495-.388l.972-4.052h13.138l.972 4.052c.055.227.26.388.495.388h2.233c.28 0 .508-.226.508-.507v-3.984c1.285-.24 2.262-1.363 2.262-2.714v-5.401c1.16-.131 2.868-.793 3.393-2.702.366-1.332.039-2.842-.877-4.04z" mask="url(#fndp4i4tmb)"/>
                        </g>
                        <g>
                            <path fill="#F05922" d="M36.506 10.893c.28-.343.477-.8.613-1.27.155.558.353.987.591 1.277.383.467.89.76 1.38.946-.497.192-1.018.497-1.416.983-.234.285-.425.68-.571 1.181-.139-.456-.336-.9-.617-1.243-.373-.455-.87-.744-1.353-.927.487-.186.99-.481 1.373-.947m-3.026.63h-.004c-.176.004-.318.145-.318.32 0 .175.145.318.324.318.017 0 1.686.016 2.497 1.005.79.964.801 3.073.801 3.094 0 .175.144.318.323.319h.002c.178 0 .323-.14.325-.315.009-.6.16-2.314.75-3.035.444-.541 1.103-.802 1.578-.926.534-.139.966-.142.97-.142.18 0 .325-.143.325-.319 0-.176-.146-.319-.326-.319-.016 0-1.68-.011-2.51-1.023-.561-.684-.758-2.463-.787-3.09-.008-.17-.151-.305-.325-.305H37.1c-.176.004-.318.144-.319.317 0 .006-.004.546-.108 1.204-.133.847-.366 1.493-.673 1.868-.83 1.012-2.5 1.03-2.516 1.03h-.003" transform="translate(10.263 13.421)"/>
                            <g transform="translate(10.263 13.421) translate(3.553)">
                                <mask id="syyanusfdd" fill="#fff">
                                    <use xlink:href="#4fxwjuy8dc"/>
                                </mask>
                                <path fill="#F05922" d="M2.123 2.62c.098-.134.183-.298.256-.491.071.202.154.367.247.495.176.241.396.415.62.54-.23.128-.457.309-.64.561-.09.122-.168.272-.235.45-.074-.19-.16-.354-.259-.49-.171-.235-.385-.404-.605-.527.223-.124.44-.298.616-.539m-1.815.86c.014 0 .906.013 1.332.598.355.487.433 1.548.434 1.916 0 .175.133.317.297.318h.002c.164 0 .297-.14.3-.315.004-.374.085-1.44.405-1.88.455-.624 1.35-.637 1.359-.637.166 0 .3-.143.3-.319 0-.176-.134-.319-.3-.319-.012 0-.905-.013-1.339-.609-.302-.415-.41-1.525-.426-1.918C2.665.141 2.53.006 2.368.01c-.163.003-.293.144-.294.317-.002.37-.082 1.434-.423 1.902-.438.6-1.333.613-1.342.613-.165 0-.3.143-.3.319 0 .176.134.319.3.319" mask="url(#syyanusfdd)"/>
                            </g>
                            <path fill="#322F31" d="M33.158 7.5c0 .218-.177.395-.395.395-.218 0-.395-.177-.395-.395 0-.218.177-.395.395-.395.218 0 .395.177.395.395m-1.58 0c0 .653.532 1.184 1.185 1.184s1.184-.531 1.184-1.184c0-.653-.53-1.184-1.184-1.184-.653 0-1.184.531-1.184 1.184M11.447 1.332c.137 0 .248.11.248.247 0 .136-.111.247-.248.247-.136 0-.247-.11-.247-.247 0-.136.111-.247.247-.247m0 1.036c.436 0 .79-.354.79-.789 0-.435-.354-.79-.79-.79-.435 0-.79.355-.79.79 0 .435.355.79.79.79" transform="translate(10.263 13.421)"/>
                            <g transform="translate(10.263 13.421) translate(.395 7.895)">
                                <mask id="0hgtekx70f" fill="#fff">
                                    <use xlink:href="#kafoy7ouqe"/>
                                </mask>
                                <path fill="#322F31" d="M1.577.737c.466 0 .845.378.845.842 0 .147-.038.292-.111.419-.151.261-.432.423-.734.423-.466 0-.845-.378-.845-.842 0-.464.379-.842.845-.842m0 2.413c.563 0 1.087-.302 1.368-.789.137-.237.209-.507.209-.782 0-.866-.707-1.57-1.577-1.57S0 .712 0 1.578C0 2.445.707 3.15 1.577 3.15" mask="url(#0hgtekx70f)"/>
                            </g>
                        </g>
                    </g>
                </g>
            </g>
        </g>
    </g>
</svg>
