<svg xmlns="http://www.w3.org/2000/svg" width="62" height="62" viewBox="0 0 62 62">
    <g fill="none" fill-rule="evenodd">
        <g>
            <g transform="translate(-254 -312) translate(255 313)">
                <g>
                    <path fill="#4A4A4A" d="M3.843 5.37H5.23c.3 0 .544-.178.544-.398 0-.22-.244-.399-.544-.399H3.843c-.3 0-.544.179-.544.399 0 .22.244.399.544.399M6.17 11.752c-.219 0-.396.179-.396.399 0 .22.177.399.396.399h6.544c.219 0 .396-.179.396-.399 0-.22-.177-.399-.396-.399H6.17zM3.747 9.36h7.381c.247 0 .448-.18.448-.4 0-.22-.2-.399-.448-.399H3.747c-.247 0-.448.179-.448.4 0 .22.2.398.448.398M7.754 5.37h5.453c.182 0 .33-.178.33-.398 0-.22-.148-.399-.33-.399H7.754c-.183 0-.33.179-.33.399 0 .22.147.399.33.399" transform="translate(8.333 18.333)"/>
                    <path fill="#4A4A4A" d="M42.864 19.091c-.12.119-.279.184-.449.184H40.11c-.513-1.677-2.102-2.904-3.979-2.904-1.877 0-3.466 1.227-3.98 2.904h-.447V5.223h6.844c.242 0 .46.132.569.344l3.414 6.677h-6.4V7.677c0-.314-.259-.568-.579-.568-.32 0-.579.254-.579.568v5.702h7.998c.006.055.01.11.011.165l.064 5.105c.002.167-.062.324-.182.442zm-6.733 4.29c-1.652 0-2.996-1.318-2.996-2.938 0-.415.09-.81.249-1.169.03-.067.062-.133.097-.197.02-.038.042-.074.064-.11.021-.036.043-.071.066-.106.023-.036.047-.07.072-.106l.08-.106.085-.104c.046-.052.092-.103.141-.152l.082-.077c.035-.033.07-.065.108-.096.028-.024.056-.048.085-.07.046-.036.093-.07.14-.103l.064-.046c.068-.044.138-.085.21-.124.026-.015.053-.028.08-.041.052-.027.105-.052.159-.076l.083-.035c.07-.028.141-.054.214-.077l.032-.01c.083-.026.168-.047.254-.065l.078-.015c.065-.012.13-.021.197-.03l.08-.008c.092-.008.183-.014.276-.014.093 0 .185.006.275.014.027.002.054.006.08.009.067.008.133.017.198.03.026.004.052.008.078.014.086.018.171.039.254.064l.032.011c.073.023.144.049.214.077l.083.035c.054.024.107.049.16.076l.08.04c.07.04.141.081.208.125.023.015.043.03.065.046.047.033.094.067.14.102l.085.07c.037.032.073.064.108.097.028.026.055.05.082.077.048.049.095.1.14.151.03.034.058.07.086.106.027.035.055.07.08.105.025.035.05.07.073.106l.065.105c.022.037.044.073.065.111.034.063.066.128.095.195.16.359.25.755.25 1.171 0 1.62-1.344 2.937-2.996 2.937zm-18.123 0c-1.652 0-2.996-1.318-2.996-2.938 0-.416.09-.812.25-1.171.03-.067.062-.132.096-.195.02-.038.043-.074.064-.11l.065-.106.073-.106c.026-.036.053-.07.08-.105.029-.036.057-.072.086-.106.045-.052.092-.102.14-.15l.082-.078c.036-.033.071-.065.108-.096.029-.024.057-.048.086-.07.045-.036.092-.07.14-.103l.064-.046c.068-.044.137-.085.209-.124.026-.015.053-.028.08-.041.052-.027.105-.052.16-.076.027-.012.054-.024.083-.035.07-.028.14-.054.213-.077l.032-.01c.083-.026.168-.047.254-.065l.078-.015c.066-.012.132-.021.198-.03l.08-.008c.09-.008.183-.014.275-.014.093 0 .185.006.275.014.027.002.054.006.08.009.067.008.133.017.198.03.027.004.053.008.079.014.085.018.17.039.254.064l.031.011c.073.023.144.049.214.077l.083.035c.054.024.107.049.16.076l.08.04c.072.04.141.081.209.125l.064.046c.048.033.095.067.14.102l.086.07c.037.032.072.064.107.097.028.026.056.05.082.077.049.049.095.1.14.151.03.034.058.07.086.106.028.035.055.07.08.105.026.035.05.07.073.106.023.035.044.07.065.105.022.037.044.073.065.111.034.063.066.128.096.195.16.359.25.755.25 1.171 0 1.62-1.344 2.937-2.997 2.937zm26.132-9.85c-.005-.452-.117-.903-.324-1.307l-3.664-7.165c-.307-.599-.92-.97-1.604-.97h-6.844V2.153c0-1.187-.87-2.153-1.94-2.153H11.07C10 0 9.13.966 9.13 2.153c0 .313.26.567.58.567.319 0 .578-.254.578-.567 0-.552.358-1.018.782-1.018h18.696c.424 0 .782.466.782 1.018v17.122h-8.56c-.513-1.677-2.102-2.904-3.979-2.904-1.876 0-3.465 1.227-3.979 2.904h-2.96c-.424 0-.782-.466-.782-1.018 0-.313-.26-.567-.579-.567-.32 0-.578.254-.578.567 0 1.187.87 2.153 1.94 2.153h2.785v.033c0 2.245 1.863 4.072 4.153 4.072 2.291 0 4.155-1.827 4.155-4.072l-.001-.033H31.978l-.001.033c0 2.245 1.864 4.072 4.154 4.072s4.155-1.827 4.155-4.072l-.002-.033h2.131c.482 0 .934-.185 1.273-.521.338-.336.521-.781.516-1.254l-.064-5.105zM4.949 12.151c0-.22-.27-.399-.604-.399H.604c-.333 0-.604.179-.604.399 0 .22.27.399.604.399h3.74c.334 0 .605-.179.605-.399" transform="translate(8.333 18.333)"/>
                    <path fill="#4A4A4A" d="M12.257 15.342c0-.22-.237-.4-.529-.4H3.003c-.292 0-.529.18-.529.4 0 .22.237.399.53.399h8.724c.292 0 .529-.179.529-.4" transform="translate(8.333 18.333)"/>
                    <path fill="#F05922" fill-rule="nonzero" d="M18.718 14.331V9.78c0-.26.024-.52.074-.78.049-.259.132-.494.25-.706.117-.211.275-.384.472-.517.197-.134.444-.2.74-.2.356 0 .652.083.887.25.235.167.41.374.523.623.114.248.171.52.171.812 0 .293-.059.564-.176.813-.118.248-.294.456-.53.623-.235.167-.527.25-.875.25-.107 0-.218-.007-.336-.022-.118-.015-.231-.039-.341-.072-.11-.034-.213-.082-.308-.145-.094-.063-.176-.14-.244-.228-.068.119-.103.276-.103.473 0 .196.05.39.148.578.099.19.258.357.478.501.22.145.52.225.899.24.364.014.719-.05 1.064-.195.345-.145.65-.35.916-.618.265-.267.477-.586.637-.957.159-.37.239-.779.239-1.224 0-.46-.074-.874-.222-1.24-.148-.368-.343-.681-.586-.941-.243-.26-.523-.46-.842-.601-.319-.141-.649-.219-.99-.234-.341-.015-.68.041-1.018.167-.338.126-.647.327-.927.601v-.623c-.198-.007-.383.011-.558.056-.174.044-.33.116-.466.217-.137.1-.245.224-.325.372-.08.149-.119.32-.119.512v6.766h1.468zm6.821-2.017V7.816h.382c.355 0 .652-.112.89-.336.236-.224.355-.52.355-.888h-1.627v-.661c0-.184.064-.314.19-.391.128-.078.274-.113.44-.105.165.007.326.055.482.143.157.088.265.206.324.353.238-.228.358-.445.363-.65.004-.206-.072-.388-.23-.546-.156-.158-.378-.281-.666-.37-.288-.088-.606-.128-.954-.12-.321.014-.582.056-.781.126-.2.07-.358.167-.477.292-.101.11-.175.235-.222.375-.047.14-.08.292-.102.457-.02.166-.03.342-.025.53.004.187.006.376.006.567h-.584v1.224h.584v4.498h1.652z" transform="translate(8.333 18.333)"/>
                </g>
                <circle cx="30" cy="30" r="30" stroke="#E7E7E7"/>
            </g>
        </g>
    </g>
</svg>
