<svg xmlns="http://www.w3.org/2000/svg" width="62" height="62" viewBox="0 0 62 62">
    <g fill="none" fill-rule="evenodd">
        <g>
            <g>
                <g transform="translate(-706 -648) translate(255 313) translate(452 336)">
                    <circle cx="30" cy="30" r="30" stroke="#E7E7E7"/>
                    <g stroke-width="1.2">
                        <path stroke="#4A4A4A" d="M2.406 14.528c0-6.628 5.117-12.001 11.429-12.001 2.868 0 5.488 1.11 7.494 2.942L19.214 7.39l5.443.19.606-5.686-2.1 1.908C20.703 1.443 17.43 0 13.835 0 6.194 0 0 6.504 0 14.528c0 2.139.44 4.17 1.23 5.998" transform="translate(15.79 16.579)"/>
                        <path stroke="#F05922" d="M26.015 13.893c0 6.628-5.117 12.002-11.429 12.002-2.868 0-5.488-1.11-7.494-2.943l2.115-1.922-5.444-.19-.605 5.686 2.1-1.908c2.46 2.36 5.733 3.803 9.328 3.803 7.641 0 13.835-6.505 13.835-14.528 0-2.139-.44-4.17-1.23-5.998" transform="translate(15.79 16.579)"/>
                    </g>
                </g>
            </g>
        </g>
    </g>
</svg>
