<svg xmlns="http://www.w3.org/2000/svg" width="62" height="62" viewBox="0 0 62 62">
    <g fill="none" fill-rule="evenodd">
        <g>
            <g>
                <g transform="translate(-706 -480) translate(255 313) translate(452 168)">
                    <circle cx="30" cy="30" r="30" stroke="#E7E7E7"/>
                    <g stroke-width="1.2">
                        <path stroke="#F05922" d="M2.368 21.711L10.263 21.711M2.368 24.868L10.263 24.868M2.368 27.237L7.895 27.237" transform="translate(14.21 15)"/>
                        <g>
                            <path stroke="#4A4A4A" d="M10.984 4.82c0 1.902-1.537 3.444-3.433 3.444-1.895 0-3.432-1.542-3.432-3.443V3.443C4.119 1.542 5.656 0 7.551 0c1.896 0 3.433 1.542 3.433 3.443v1.378zM0 14.462c0-1.901 1.537-3.443 3.432-3.443h8.238c1.896 0 3.433 1.542 3.433 3.443" transform="translate(14.21 15)"/>
                            <path stroke="#F05922" d="M27.46 22.727c0 1.901-1.537 3.443-3.433 3.443-1.895 0-3.432-1.542-3.432-3.443v-1.378c0-1.901 1.537-3.443 3.432-3.443 1.896 0 3.433 1.542 3.433 3.443v1.378zM16.476 32.368c0-1.901 1.537-3.443 3.432-3.443h8.238c1.896 0 3.433 1.542 3.433 3.443" transform="translate(14.21 15)"/>
                            <path stroke="#4A4A4A" d="M19.222 0c-.759 0-1.373.616-1.373 1.377v3.444l-3.518 2.058 3.518 2.074v3.443c0 .761.614 1.378 1.373 1.378h10.984c.759 0 1.373-.617 1.373-1.378V1.377c0-.76-.614-1.377-1.373-1.377H19.222z" transform="translate(14.21 15)"/>
                            <path stroke="#F05922" d="M12.357 17.906c.759 0 1.373.616 1.373 1.377v3.444l3.518 2.058-3.518 2.074v3.443c0 .761-.614 1.378-1.373 1.378H1.373C.614 31.68 0 31.063 0 30.302V19.283c0-.76.614-1.377 1.373-1.377h10.984z" transform="translate(14.21 15)"/>
                            <path stroke="#4A4A4A" d="M24.714 11.708L24.714 10.33M24.714 8.953v-.64c0-.46.23-.891.612-1.146l.836-.56c.382-.255.611-.686.611-1.146V4.132c0-.76-.614-1.377-1.373-1.377h-1.373c-.758 0-1.373.616-1.373 1.377v.689" transform="translate(14.21 15)"/>
                        </g>
                    </g>
                </g>
            </g>
        </g>
    </g>
</svg>
