<svg xmlns="http://www.w3.org/2000/svg" width="22" height="22" viewBox="0 0 22 22">
    <g fill="none" fill-rule="evenodd" transform="translate(1 1)">
        <circle cx="10" cy="10" r="10" stroke="#1D3B48"/>
        <path fill="#1D3B48" d="M9.222 14.688v-3.432a15.15 15.15 0 0 1 .081-1.581c.018-.182.039-.377.063-.585h.726c.024.208.045.403.063.585a18.036 18.036 0 0 1 .072 1.053c.006.172.009.348.009.528v3.432H9.222zm1.272-7.938a.762.762 0 0 1-.213.534.734.734 0 0 1-.531.222.77.77 0 0 1-.534-.222A.762.762 0 0 1 9 6.75.737.737 0 0 1 9.75 6c.104 0 .202.019.294.057a.696.696 0 0 1 .237.159.763.763 0 0 1 .213.534z"/>
    </g>
</svg>
