<svg width="24" height="24" viewBox="0 0 24 24" xmlns="http://www.w3.org/2000/svg">
    <g fill="none" fill-rule="evenodd">
        <path d="M12 20.296a8.296 8.296 0 1 0 0-16.592 8.296 8.296 0 0 0 0 16.592z" stroke="#FF7035" stroke-width="1.5" stroke-linecap="round" stroke-linejoin="round"/>
        <path d="M10.666 2.518v1.334h2.667V2.518h-2.667zm2.667-1.185a1.333 1.333 0 0 0-2.667 0h2.667zm0 1.185V1.333h-2.667v1.185h2.667zM10.666 22.667a1.333 1.333 0 0 0 2.667 0h-2.667zm2.667-1.186v-1.333h-2.667v1.333h2.667zm0 1.186V21.48h-2.667v1.186h2.667zM21.481 10.667h-1.333v2.666h1.333v-2.666zm1.185 2.666a1.333 1.333 0 0 0 0-2.666v2.666zm-1.185 0h1.185v-2.666h-1.185v2.666zM1.333 10.667a1.333 1.333 0 0 0 0 2.666v-2.666zm1.185 2.666h1.334v-2.666H2.518v2.666zm-1.185 0h1.185v-2.666H1.333v2.666zM12 14.37a2.37 2.37 0 1 0 0-4.74 2.37 2.37 0 0 0 0 4.74z" fill="#FF7035" fill-rule="nonzero"/>
    </g>
</svg>
