<svg width="91" height="112" viewBox="0 0 91 112" xmlns="http://www.w3.org/2000/svg">
    <g fill="none" fill-rule="evenodd">
        <path d="M45.362 0a75.87 75.87 0 0 1-10.05 8.514C24.669 16.128 11.508 22.01.154 23.506-1.408 58.466 9.03 82.484 27.568 99c5.382-2.07 11.342-5.292 17.823-9.56-17.045-10.859-27.552-26.88-27.552-51.173 10.055-1.81 19.2-6.186 27.552-11.719A85.873 85.873 0 0 0 61 12.214 81.33 81.33 0 0 1 45.362 0z" fill="#FF3E14" fill-rule="nonzero"/>
        <path d="M90.846 23.413C81.432 22.15 70.758 17.843 61.327 12a85.947 85.947 0 0 1-15.56 14.445c8.308 5.6 17.425 9.985 27.449 11.81 0 24.499-10.475 40.644-27.45 51.57-6.46 4.318-12.4 7.565-17.766 9.634A95.307 95.307 0 0 0 45.767 112a108.532 108.532 0 0 0 8.296-5.1C78.36 90.3 92.66 64.273 90.846 23.413z" fill="#F67C2C" fill-rule="nonzero"/>
        <path stroke="#F67C2C" stroke-width="2" stroke-linecap="round" stroke-linejoin="round" d="M33 61.125 42.825 69 61 48"/>
    </g>
</svg>
