<svg width="130" height="23" viewBox="0 0 130 23" xmlns="http://www.w3.org/2000/svg">
    <g fill-rule="nonzero" fill="none">
        <path d="m22.012 21.382-5.38-9.89 5.123-9.876a.85.85 0 0 0 0-.727.624.624 0 0 0-.217-.27.59.59 0 0 0-.321-.106h-6.725a.616.616 0 0 0-.538.348L12.03 4.648l3.28 6.062c.291.54.291 1.191 0 1.732l-3.063 5.938 2.071 3.785c.1.2.301.329.524.335h6.713a.64.64 0 0 0 .324-.111.676.676 0 0 0 .226-.264.834.834 0 0 0 0-.743" fill="#FFE600"/>
        <path d="m13.619 11.213-3-5.518L8.021.835a.646.646 0 0 0-.226-.242A.614.614 0 0 0 7.483.5H.854a.603.603 0 0 0-.32.108.637.637 0 0 0-.219.269.835.835 0 0 0 0 .74l5.38 9.974L.559 21.37a.806.806 0 0 0 0 .727.75.75 0 0 0 .214.28.495.495 0 0 1 .135 0c.063.005.125.005.19 0H7.82a.59.59 0 0 0 .32-.102.621.621 0 0 0 .218-.262l2.434-4.652 2.826-5.352a.82.82 0 0 0 0-.767" fill="#FFE600"/>
        <path d="M31.44 11.205 28.607 6.32a.299.299 0 0 1-.006-.302.261.261 0 0 1 .106-.105.228.228 0 0 1 .14-.024h2.05a.28.28 0 0 1 .126.045c.04.025.073.06.098.1L32.733 8.9l1.636-2.867a.3.3 0 0 1 .098-.103.264.264 0 0 1 .126-.042h2.05c.242 0 .372.23.242.431l-2.852 4.885 2.945 5.151a.303.303 0 0 1 .016.302.264.264 0 0 1-.102.108.23.23 0 0 1-.139.03h-1.928a.297.297 0 0 1-.136-.041.33.33 0 0 1-.106-.101l-1.834-3.146-1.826 3.146a.338.338 0 0 1-.107.1.303.303 0 0 1-.134.041h-1.946c-.242 0-.372-.237-.242-.439l2.947-5.151h-.002zM43.773 5.91a4.18 4.18 0 0 1 1.784.334c.57.24 1.088.604 1.529 1.07a.313.313 0 0 1 0 .428l-1.07 1.226a.24.24 0 0 1-.172.075.24.24 0 0 1-.17-.075 2.634 2.634 0 0 0-1.85-.771 2.669 2.669 0 0 0-1.979.906 3.267 3.267 0 0 0-.82 2.188c0 .82.295 1.608.82 2.19.524.579 1.237.905 1.978.905a2.763 2.763 0 0 0 1.832-.725.247.247 0 0 1 .177-.077c.065 0 .13.028.176.077l1.076 1.255a.336.336 0 0 1 0 .409c-.899.963-2.108 1.491-3.36 1.468a4.51 4.51 0 0 1-1.95-.348 4.898 4.898 0 0 1-1.67-1.168 5.503 5.503 0 0 1-1.122-1.796 5.954 5.954 0 0 1-.396-2.139c0-.735.135-1.463.396-2.14a5.53 5.53 0 0 1 1.122-1.796 4.896 4.896 0 0 1 1.67-1.167 4.508 4.508 0 0 1 1.95-.347l.05.018zm10.403-.022c1.013-.001 2 .317 2.822.909a5.385 5.385 0 0 1 1.877 2.442 5.838 5.838 0 0 1 .297 3.153 5.596 5.596 0 0 1-1.382 2.798 4.998 4.998 0 0 1-2.595 1.501 4.743 4.743 0 0 1-2.933-.304 5.17 5.17 0 0 1-2.28-2.005 5.75 5.75 0 0 1-.861-3.03 5.803 5.803 0 0 1 .38-2.088 5.48 5.48 0 0 1 1.095-1.772 5.06 5.06 0 0 1 1.641-1.186 4.762 4.762 0 0 1 1.94-.418zm0 8.475a2.665 2.665 0 0 0 1.571-.503c.467-.331.831-.805 1.047-1.358a3.256 3.256 0 0 0 .164-1.756 3.108 3.108 0 0 0-.772-1.556 2.762 2.762 0 0 0-1.447-.83 2.634 2.634 0 0 0-1.632.177 2.883 2.883 0 0 0-1.263 1.125 3.197 3.197 0 0 0-.467 1.69c.004.796.301 1.56.824 2.124a2.728 2.728 0 0 0 1.975.887zm6.68-8.08a.288.288 0 0 1 .013-.273.264.264 0 0 1 .102-.093.245.245 0 0 1 .132-.028h1.926c.051.002.1.02.142.049.042.03.077.072.097.12l2.389 5.643h.089l2.386-5.642a.296.296 0 0 1 .103-.121.272.272 0 0 1 .146-.049H70.3a.236.236 0 0 1 .135.021c.043.02.08.053.106.095a.274.274 0 0 1 .007.279l-4.546 10.345a.27.27 0 0 1-.094.123.246.246 0 0 1-.145.046h-.142a.254.254 0 0 1-.147-.046.278.278 0 0 1-.1-.125L60.856 6.285v-.001zm11.286-.1a.317.317 0 0 1 .084-.206.28.28 0 0 1 .194-.09h6.076c.074 0 .145.031.198.087a.306.306 0 0 1 .082.21V7.87c0 .078-.03.153-.082.21a.271.271 0 0 1-.198.088h-4.059v1.918h3.34a.28.28 0 0 1 .194.089c.053.056.083.13.083.209v1.705a.307.307 0 0 1-.08.21.271.271 0 0 1-.198.088h-3.339v2.108h4.06c.073 0 .144.032.197.088.052.055.082.13.082.21V16.5c0 .077-.03.151-.082.208a.271.271 0 0 1-.198.09h-6.074a.28.28 0 0 1-.195-.091.317.317 0 0 1-.085-.209V6.184zm9.365 0c0-.077.028-.152.08-.208a.268.268 0 0 1 .195-.087h4.351a2.982 2.982 0 0 1 2.049.76c.574.509.96 1.223 1.084 2.01a3.525 3.525 0 0 1-.406 2.281 3.154 3.154 0 0 1-1.701 1.44l1.992 3.959a.31.31 0 0 1-.102.425.261.261 0 0 1-.148.034h-1.938a.295.295 0 0 1-.232-.143l-1.93-4.13h-1.009v3.947a.327.327 0 0 1-.085.205.288.288 0 0 1-.191.092h-1.732a.268.268 0 0 1-.196-.087.307.307 0 0 1-.08-.208V6.183zm4.465 4.361c.302-.019.584-.158.784-.386a1.3 1.3 0 0 0 .324-.856c-.001-.31-.118-.61-.328-.837a1.08 1.08 0 0 0-.78-.349h-2.18v2.428h2.18zm6.66 3.735c.366.014.714.155.968.395.25.23.392.553.392.893a1.21 1.21 0 0 1-.417.87c-.269.233-.613.362-.97.361a1.453 1.453 0 0 1-.945-.371 1.19 1.19 0 0 1-.4-.86c-.002-.167.031-.333.098-.486.069-.156.169-.297.294-.414.126-.12.278-.215.447-.282.167-.067.349-.101.532-.106zm7.945-8.369a4.56 4.56 0 0 1 1.868.334c.598.24 1.14.604 1.603 1.07.058.056.09.133.089.214 0 .08-.033.156-.09.213l-1.125 1.227a.245.245 0 0 1-.175.078.234.234 0 0 1-.175-.078 2.836 2.836 0 0 0-1.933-.771c-.777 0-1.52.325-2.07.906a3.187 3.187 0 0 0-.856 2.188c0 .82.308 1.608.857 2.19a2.85 2.85 0 0 0 2.068.905 2.965 2.965 0 0 0 1.925-.725.264.264 0 0 1 .184-.077c.07 0 .135.028.185.077l1.116 1.255a.307.307 0 0 1 0 .409 4.804 4.804 0 0 1-3.514 1.468 4.909 4.909 0 0 1-2.04-.348 5.13 5.13 0 0 1-1.744-1.168 5.473 5.473 0 0 1-1.173-1.796 5.727 5.727 0 0 1 0-4.278 5.474 5.474 0 0 1 1.173-1.797 5.144 5.144 0 0 1 1.745-1.167 4.903 4.903 0 0 1 2.037-.347l.045.018zm10.567-.022c1.013-.001 2 .317 2.822.909a5.386 5.386 0 0 1 1.876 2.442 5.838 5.838 0 0 1 .296 3.153 5.598 5.598 0 0 1-1.381 2.798 4.992 4.992 0 0 1-2.596 1.501 4.741 4.741 0 0 1-2.933-.304 5.17 5.17 0 0 1-2.28-2.005 5.75 5.75 0 0 1-.861-3.03 5.81 5.81 0 0 1 .38-2.088 5.503 5.503 0 0 1 1.095-1.772 5.06 5.06 0 0 1 1.643-1.186 4.762 4.762 0 0 1 1.939-.418zm0 8.475a2.688 2.688 0 0 0 1.57-.508 2.998 2.998 0 0 0 1.039-1.36 3.237 3.237 0 0 0 .161-1.755 3.107 3.107 0 0 0-.773-1.552 2.76 2.76 0 0 0-1.447-.827 2.634 2.634 0 0 0-1.63.178 2.88 2.88 0 0 0-1.262 1.124 3.197 3.197 0 0 0-.467 1.689c.007.798.305 1.561.83 2.124a2.734 2.734 0 0 0 1.979.887zm8.635-8.236a.28.28 0 0 1 .083-.17.257.257 0 0 1 .17-.07h.23a.306.306 0 0 1 .138.042c.042.028.08.063.106.106l3.318 6.461 3.318-6.46a.306.306 0 0 1 .245-.147l.229-.001c.062 0 .122.026.17.07a.28.28 0 0 1 .084.169l1.624 10.154a.29.29 0 0 1-.059.236.252.252 0 0 1-.214.096h-1.693a.29.29 0 0 1-.174-.073.318.318 0 0 1-.098-.167l-.64-4.615-2.406 4.873a.352.352 0 0 1-.244.167h-.256a.297.297 0 0 1-.143-.051.32.32 0 0 1-.103-.116l-2.413-4.966-.633 4.615a.299.299 0 0 1-.094.172.272.272 0 0 1-.177.07h-1.686a.252.252 0 0 1-.213-.098.28.28 0 0 1-.058-.236l1.587-10.061h.002z" fill="#2D2D2D"/>
    </g>
</svg>
