<svg width="70" height="13" viewBox="0 0 70 13" fill="none" xmlns="http://www.w3.org/2000/svg">
    <path d="M20.893 7.886c.447-1.686.881-3.287 1.288-4.895.071-.284.182-.371.474-.348.345.023.692.024 1.038.002.181-.008.246.056.286.217.4 1.582.805 3.162 1.213 4.742.023.09.05.178.095.345.134-.524.249-.976.36-1.43.298-1.206.599-2.411.884-3.62.048-.204.134-.262.341-.255.47.016.941.005 1.443.005l-.64 2.289c-.479 1.713-.962 3.427-1.431 5.145-.049.18-.117.24-.307.233a15.187 15.187 0 0 0-1.239.002c-.21.01-.275-.065-.321-.248-.398-1.572-.806-3.143-1.212-4.713-.019-.072-.043-.142-.086-.281l-.428 1.671c-.284 1.114-.573 2.227-.847 3.343-.041.166-.096.232-.28.226-.452-.012-.904-.007-1.356-.002-.134 0-.201-.026-.24-.169-.678-2.486-1.363-4.97-2.058-7.495h1.648c.149 0 .125.114.145.197.38 1.567.76 3.135 1.138 4.703.024.089.05.177.092.336zM30.262 5.564c.374-.564.849-.863 1.444-.928 1.167-.126 2.187.274 2.33 1.63.074.714.028 1.427.04 2.14.01.556-.007 1.113.008 1.67.005.2-.06.25-.258.24a10.908 10.908 0 0 0-1.067 0c-.228.013-.268-.069-.265-.268.01-.88.006-1.762.003-2.643 0-.203-.011-.408-.029-.61-.056-.636-.324-.94-.848-.973-.743-.046-1.149.226-1.294.862a3.44 3.44 0 0 0-.064.774c0 .862-.01 1.725.005 2.586.005.227-.07.281-.29.271-.365-.016-.73-.01-1.096-.001-.16.004-.215-.041-.214-.203.005-2.42.005-4.84 0-7.26 0-.153.037-.212.206-.207.384.012.77.014 1.153 0 .192-.007.241.05.24.232-.011.778-.005 1.557-.005 2.336v.352zM49.658 6.383H48.27c-.064 0-.106-.013-.118-.085-.096-.562-.548-.634-1.013-.664a1.348 1.348 0 0 0-.623.081c-.168.072-.292.178-.313.366-.023.196.061.343.226.45.27.174.584.228.892.297.438.1.883.176 1.31.318.631.208 1.123.547 1.177 1.25.056.726-.22 1.312-.888 1.681-.698.385-1.465.41-2.24.344-.414-.035-.818-.121-1.186-.316-.577-.306-.92-.768-.997-1.408-.016-.136-.009-.202.162-.197.385.012.77.008 1.154 0 .119-.002.168.03.185.147.124.895 1.557.975 2.045.52.31-.29.247-.707-.15-.891-.435-.202-.91-.285-1.377-.388-.346-.078-.695-.151-1.018-.295-.49-.218-.844-.543-.873-1.106-.034-.63.165-1.157.747-1.492.673-.388 1.421-.42 2.176-.367.326.023.649.079.953.204.7.29 1.09.793 1.158 1.551zM43.127 3.938c0 .213.008.427-.002.64-.007.142.037.197.193.19.259-.012.52.004.778-.007.154-.006.201.045.193.19a5.786 5.786 0 0 0 0 .64c.008.145-.038.196-.192.19-.26-.012-.52.005-.78-.007-.153-.006-.194.043-.193.188.007.873 0 1.743.008 2.615.005.469.14.587.627.592.167 0 .431-.062.485.014.086.122.04.335.04.51.003.641 0 .646-.656.658-.268.005-.539 0-.807-.019-.868-.065-1.279-.491-1.284-1.332a154.6 154.6 0 0 1 .004-2.92c.003-.23-.033-.32-.304-.31-.648.023-.65.007-.65-.622 0-.384 0-.384.414-.384.536 0 .536 0 .536-.521 0-.323.006-.65-.003-.974-.003-.133.039-.177.178-.174.414.007.827.007 1.24 0 .14-.003.184.043.178.175-.01.222-.003.445-.003.668zM57.475 10.062c-.858-2.197-1.712-4.395-2.56-6.596-.104-.267-.141-.636-.343-.768-.202-.131-.573-.029-.871-.029v-.004c-.297 0-.667-.104-.87.03-.204.132-.238.5-.347.766-.007.017-.016.032-.022.05a4745.62 4745.62 0 0 1-2.579 6.559c-.081.207-.046.252.175.245.432-.012.865-.01 1.298 0 .152.004.22-.048.268-.182.158-.456.333-.905.488-1.362.044-.13.109-.168.244-.168.866.006 1.731.009 2.597-.001.172-.002.228.062.275.206.138.423.305.837.435 1.262.06.198.161.254.366.246.422-.015.847-.018 1.269 0 .25.013.256-.05.177-.255zm-4.68-2.718c-.167 0-.132-.073-.095-.173.323-.869.641-1.738.982-2.665l1.012 2.836c-.652 0-1.275-.003-1.899.002zM69.597 5.918c-.834-1.69-3.214-1.638-3.935-.478-.063-.162-.044-.291-.033-.414.018-.198-.034-.283-.263-.267a7.176 7.176 0 0 1-.95 0c-.235-.015-.306.047-.304.284.012 1.519.006 3.038.006 4.558 0 .797.008 1.594-.005 2.392-.004.214.062.269.275.259.364-.017.73-.014 1.095 0 .175.006.229-.04.226-.215-.01-.723-.006-1.446-.002-2.168 0-.065-.045-.148.048-.2.225.275.494.489.834.62 1.188.46 2.506-.03 3.047-1.174.504-1.063.479-2.15-.038-3.197zM68.2 8.588c-.23.476-.619.72-1.159.722-.524.003-.94-.206-1.16-.674-.334-.719-.33-1.458-.01-2.178.19-.43.552-.667 1.055-.693.536-.028.93.182 1.196.619.236.388.272.821.275 1.164-.025.418-.05.74-.197 1.04zM63.526 6.514c-.248-.906-.787-1.574-1.754-1.813-.937-.232-1.792-.086-2.458.772 0-.215-.01-.355.002-.49.015-.16-.02-.232-.213-.224-.364.017-.73.01-1.095.003-.142-.003-.201.025-.201.18.005 2.374.005 4.748 0 7.121 0 .148.048.19.197.188a23.2 23.2 0 0 1 1.183 0c.187.006.22-.065.218-.227-.008-.704-.005-1.409-.002-2.113 0-.077-.027-.162.041-.247.18.208.368.388.603.515 1.19.646 2.706.153 3.297-1.087.399-.834.422-1.7.182-2.578zm-1.653 2.11c-.205.47-.623.69-1.15.687-.512-.002-.903-.214-1.143-.661-.19-.356-.234-.738-.23-1.293 0-.288.061-.574.18-.838.216-.457.564-.73 1.105-.753.562-.025.976.203 1.21.681.347.714.342 1.456.028 2.177zM40.312 10.186c-.172-.494-.134-1.007-.14-1.515-.008-.853-.004-1.706-.01-2.559-.004-.61-.348-.994-.898-1.241-.356-.16-.737-.208-1.119-.24-.696-.057-1.384-.02-2.037.248-.614.252-1.015.68-1.145 1.325-.034.172-.034.277.207.265.374-.02.75-.013 1.124 0 .168.005.243-.04.266-.206a.628.628 0 0 1 .135-.32.661.661 0 0 1 .287-.205c.399-.156.81-.15 1.212-.013.277.095.396.34.393.677-.002.287-.193.41-.435.482-.184.053-.372.09-.562.114-.56.074-1.126.122-1.671.281-.767.223-1.16.746-1.157 1.53.003.792.407 1.342 1.188 1.534.962.237 1.865.107 2.694-.535.028.132.049.24.074.346.022.095.057.164.187.162.432-.008.865-.004 1.298-.003.095 0 .147-.018.11-.127zm-1.737-1.81c-.043.621-.429 1-1.072 1.06-.19.02-.382.008-.569-.032-.368-.082-.556-.263-.593-.584a.709.709 0 0 1 .422-.75c.315-.151.663-.175 1.001-.224.275-.039.544-.088.815-.224-.001.272.012.513-.004.752v.002zM10.02 7.705c-.422-.194-.84-.393-1.264-.582-.201-.089-.312-.05-.447.124-.11.141-.215.288-.329.427-.172.212-.276.236-.535.134-.922-.362-1.61-.981-2.119-1.797-.078-.126-.067-.23.03-.337.119-.129.236-.258.352-.388.116-.13.134-.27.06-.432-.162-.359-.32-.72-.467-1.084-.091-.226-.223-.372-.478-.315a.863.863 0 0 0-.793.327c-.414.489-.504 1.038-.349 1.636.138.528.458.96.785 1.39.868 1.14 1.96 1.983 3.394 2.371.396.107.79.206 1.197.075.822-.266 1.072-.64 1.098-1.316.005-.108-.03-.185-.136-.233z" fill="#121212"/>
    <path d="M13.183 4.756c-.717-2.63-3.001-4.49-5.83-4.73a6.49 6.49 0 0 0-3.973.91C.32 2.775-.65 6.487 1.128 9.507a.223.223 0 0 1 .022.208c-.13.36-.254.72-.38 1.081L0 13l.17-.05c1.105-.34 2.213-.679 3.318-1.024a.338.338 0 0 1 .281.018 6.669 6.669 0 0 0 4.474.57c3.62-.766 5.876-4.317 4.94-7.758zm-5.467 6.83c-1.369.207-2.645-.033-3.825-.741-.093-.056-.167-.053-.261-.023-.65.203-1.3.403-1.979.614.22-.632.428-1.238.644-1.84.038-.104.02-.176-.042-.263-2.165-3.022-.505-7.259 3.193-8.16a5.73 5.73 0 0 1 2.296-.088c.764.126 1.491.406 2.136.82a5.44 5.44 0 0 1 1.607 1.586c.415.631.688 1.34.802 2.08.44 2.843-1.63 5.568-4.57 6.014z" fill="#121212"/>
</svg>
